<svg width="62" height="26" viewBox="0 0 62 26" fill="none" xmlns="http://www.w3.org/2000/svg">
<g id="Group 280">
<g id="elio">
<path id="Vector" d="M53.0615 23.0114C47.8627 23.0114 44.9539 19.7329 44.9539 14.6436C44.9539 9.5855 47.8627 6.27588 53.0615 6.27588C58.2912 6.27588 61.2 9.5855 61.2 14.6436C61.2 19.7329 58.2912 23.0114 53.0615 23.0114ZM53.0615 19.9515C55.7227 19.9515 57.2081 18.203 57.2081 14.6436C57.2081 11.0842 55.7227 9.33572 53.0615 9.33572C50.4311 9.33572 48.9458 11.0842 48.9458 14.6436C48.9458 18.203 50.4311 19.9515 53.0615 19.9515Z" fill="#403E44"/>
<path id="Vector_2" d="M43.9123 22.699H39.9204V6.58803H43.9123V22.699ZM41.9318 4.18387C40.4465 4.18387 39.611 3.2784 39.611 2.09193C39.611 0.905465 40.4465 0 41.9318 0C43.4172 0 44.2218 0.905465 44.2218 2.09193C44.2218 3.2784 43.4172 4.18387 41.9318 4.18387Z" fill="#403E44"/>
<path id="Vector_3" d="M38.2601 22.699H34.2682V0.468262H38.2601V22.699Z" fill="#403E44"/>
<path id="Vector_4" d="M25.437 23.0114C20.2382 23.0114 17.3293 19.7329 17.3293 14.6436C17.3293 9.67917 20.1144 6.27588 25.2513 6.27588C30.4191 6.27588 33.2042 9.7104 33.2042 14.4563C33.2042 14.7997 33.1732 15.112 33.1423 15.4866H21.3213C21.445 18.765 22.9923 20.2637 25.437 20.2637C27.4174 20.2637 28.7171 19.2646 29.1813 17.6098H32.8638C32.183 20.9194 29.7383 23.0114 25.437 23.0114ZM25.2513 9.02349C23.0542 9.02349 21.6617 10.3036 21.3213 12.8639H29.2123C28.8719 10.3036 27.4484 9.02349 25.2513 9.02349Z" fill="#403E44"/>
</g>
<path id="Vector 1" d="M12.6257 4.4856L3.6001 14.2427L12.6257 23.9999" stroke="#403E44" stroke-width="5"/>
</g>
</svg>
