<svg width="105" height="24" viewBox="0 0 105 24" fill="none" xmlns="http://www.w3.org/2000/svg">
<g id="Group 284">
<g id="exon">
<path id="Vector" d="M104.8 21.0952H100.865V9.12924C100.865 6.23066 99.8257 4.74421 97.1159 4.74421C94.2575 4.74421 92.4014 6.89956 92.4014 10.3927V21.0952H88.4666V1.91995H92.2158V5.26447C93.2552 3.03479 95.1113 1.54834 98.3038 1.54834C102.684 1.54834 104.8 3.77802 104.8 8.42318V21.0952Z" fill="#403E44"/>
<path id="Vector_2" d="M77.5041 21.4668C71.4161 21.4668 68.0381 17.602 68.0381 11.5076C68.0381 5.41311 71.4161 1.54834 77.5041 1.54834C83.592 1.54834 86.9701 5.41311 86.9701 11.5076C86.9701 17.602 83.592 21.4668 77.5041 21.4668ZM77.5041 18.4567C81.0306 18.4567 83.0352 16.1527 83.0352 11.5076C83.0352 6.89956 81.0306 4.5584 77.5041 4.5584C73.9775 4.5584 71.973 6.89956 71.973 11.5076C71.973 16.1527 73.9775 18.4567 77.5041 18.4567Z" fill="#403E44"/>
<path id="Vector_3" d="M69.5417 21.0951H65.1614L60.2613 14.2203L55.3242 21.0951H50.981L57.9969 11.1359L51.3522 1.91992H55.6954L60.2613 8.31166L64.7902 1.91992H69.1705L62.5258 11.1359L69.5417 21.0951Z" fill="#403E44"/>
<path id="Vector_4" d="M43.461 21.4668C37.3731 21.4668 33.995 17.602 33.995 11.5076C33.995 5.59892 37.1874 1.54834 43.2383 1.54834C49.2891 1.54834 52.4815 5.67324 52.4815 11.1731C52.4815 11.5447 52.4444 11.8792 52.4073 12.2508H37.9299C38.0412 16.7845 40.1943 18.754 43.461 18.754C46.1709 18.754 47.8785 17.3419 48.4724 15.1494H52.0732C51.2194 19.0513 48.4353 21.4668 43.461 21.4668ZM43.2383 4.26112C40.2685 4.26112 38.3382 6.04486 37.9299 9.6495H48.5466C48.1383 6.04486 46.208 4.26112 43.2383 4.26112Z" fill="#403E44"/>
</g>
<path id="Rectangle 2" d="M24.3744 0L18.1874 5.41936L0.400024 0L18.1874 24L24.3744 18.5806V0Z" fill="#403E44"/>
</g>
</svg>
