<svg width="138" height="24" viewBox="0 0 138 24" fill="none" xmlns="http://www.w3.org/2000/svg">
<g id="Group 278">
<g id="attracts">
<path id="Vector" d="M110.851 24.0001C104.874 24.0001 102.237 21.5016 102.237 17.8066H107.476C107.687 19.5661 108.531 20.5162 110.921 20.5162C113.172 20.5162 114.086 19.6365 114.086 18.5104C114.086 17.4898 113.242 16.9268 111.8 16.7157L108.917 16.3286C104.347 15.6599 102.729 14.1467 102.729 10.9796C102.729 7.63647 105.19 5.13794 110.851 5.13794C116.512 5.13794 118.973 7.63647 118.973 11.05H113.734C113.558 9.71272 113.031 8.62181 110.781 8.62181C108.847 8.62181 108.109 9.396 108.109 10.5221C108.109 11.5074 108.636 11.9649 109.832 12.1409L112.679 12.528C117.004 13.1614 119.465 14.4986 119.465 18.1585C119.465 21.5016 116.828 24.0001 110.851 24.0001Z" fill="#403E44"/>
<path id="Vector_2" d="M98.6483 23.8592C94.2182 23.8592 92.8118 22.4516 92.8118 18.1232V9.25513H90.0693V5.48974H92.8118V0H98.1561V5.48974H101.883V9.25513H98.1561V18.3343C98.1561 19.6012 98.7186 20.0586 99.9844 20.0586H101.883V23.6481C101.074 23.7185 99.4921 23.8592 98.6483 23.8592Z" fill="#403E44"/>
<path id="Vector_3" d="M81.7851 24.0001C75.7728 24.0001 72.3623 20.2347 72.3623 14.569C72.3623 8.90334 75.7728 5.13794 81.7851 5.13794C87.8326 5.13794 90.6453 8.83295 90.6453 12.5983H85.5823C85.3011 10.5925 84.176 9.18486 81.7851 9.18486C79.2184 9.18486 77.7417 10.9092 77.7417 14.569C77.7417 18.2288 79.2184 19.9532 81.7851 19.9532C83.8244 19.9532 85.2659 18.9327 85.5823 16.3989H90.6453C90.6453 20.5162 87.6216 24.0001 81.7851 24.0001Z" fill="#403E44"/>
<path id="Vector_4" d="M60.5327 24.0001C56.2081 24.0001 53.9227 21.8535 53.9227 18.5104C53.9227 15.6951 55.5401 13.4077 60.1811 13.0206L64.0487 12.7039C65.5606 12.5632 65.9825 12.1057 65.9825 11.3315C65.9825 9.7831 65.0332 8.90333 63.2049 8.90333C61.4117 8.90333 60.4273 9.71272 60.2515 11.3315H54.9072C54.9072 7.56609 57.2981 5.13794 63.1346 5.13794C68.9711 5.13794 71.3619 7.56609 71.3619 11.3315V19.003C71.3619 21.4664 71.5729 23.05 71.9245 23.6482H67.0373C66.545 23.0148 66.2638 22.311 66.2638 21.1145C65.2441 23.0148 63.5565 24.0001 60.5327 24.0001ZM62.1149 20.4107C64.5761 20.4107 65.9825 18.5456 65.9825 16.3286V15.308C65.7364 15.5896 65.0332 15.7655 64.0487 15.8711L62.0798 16.0118C60.0757 16.1878 59.3022 16.9972 59.3022 18.1233C59.3022 19.4957 60.146 20.4107 62.1149 20.4107Z" fill="#403E44"/>
<path id="Vector_5" d="M48.3299 23.6481H42.9504V5.48974H48.0486V9.3959C48.9627 6.22874 50.5449 5.24341 52.9358 5.24341C53.428 5.24341 54.2719 5.34898 54.6234 5.48974V10.1701L52.7248 10.1349C50.0527 10.1349 48.3299 12.0352 48.3299 15.3431V23.6481Z" fill="#403E44"/>
<path id="Vector_6" d="M38.6584 23.8592C34.2283 23.8592 32.8219 22.4516 32.8219 18.1232V9.25513H30.0795V5.48974H32.8219V0H38.1662V5.48974H41.8931V9.25513H38.1662V18.3343C38.1662 19.6012 38.7287 20.0586 39.9945 20.0586H41.8931V23.6481C41.0844 23.7185 39.5023 23.8592 38.6584 23.8592Z" fill="#403E44"/>
<path id="Vector_7" d="M26.983 23.8592C22.5529 23.8592 21.1465 22.4516 21.1465 18.1232V9.25513H18.4041V5.48974H21.1465V0H26.4908V5.48974H30.2177V9.25513H26.4908V18.3343C26.4908 19.6012 27.0533 20.0586 28.3191 20.0586H30.2177V23.6481C29.409 23.7185 27.8268 23.8592 26.983 23.8592Z" fill="#403E44"/>
<path id="Vector_8" d="M7.41006 24.0001C3.08543 24.0001 0.800049 21.8535 0.800049 18.5104C0.800049 15.6951 2.41739 13.4077 7.05847 13.0206L10.926 12.7039C12.4379 12.5632 12.8598 12.1057 12.8598 11.3315C12.8598 9.7831 11.9105 8.90333 10.0822 8.90333C8.28906 8.90333 7.30458 9.71272 7.12879 11.3315H1.78452C1.78452 7.56609 4.17538 5.13794 10.0119 5.13794C15.8484 5.13794 18.2392 7.56609 18.2392 11.3315V19.003C18.2392 21.4664 18.4502 23.05 18.8018 23.6482H13.9146C13.4224 23.0148 13.1411 22.311 13.1411 21.1145C12.1215 23.0148 10.4338 24.0001 7.41006 24.0001ZM8.99225 20.4107C11.4534 20.4107 12.8598 18.5456 12.8598 16.3286V15.308C12.6137 15.5896 11.9105 15.7655 10.926 15.8711L8.95709 16.0118C6.95299 16.1878 6.17948 16.9972 6.17948 18.1233C6.17948 19.4957 7.02331 20.4107 8.99225 20.4107Z" fill="#403E44"/>
</g>
<g id="Group 276">
<path id="Ellipse 15 (Stroke)" fill-rule="evenodd" clip-rule="evenodd" d="M131.186 22.8362C134.203 22.8362 136.648 20.4672 136.648 17.545C136.648 14.6228 134.203 12.2538 131.186 12.2538C128.17 12.2538 125.725 14.6228 125.725 17.545C125.725 20.4672 128.17 22.8362 131.186 22.8362ZM131.186 23.7587C134.729 23.7587 137.6 20.9767 137.6 17.545C137.6 14.1133 134.729 11.3313 131.186 11.3313C127.644 11.3313 124.773 14.1133 124.773 17.545C124.773 20.9767 127.644 23.7587 131.186 23.7587Z" fill="#403E44"/>
<path id="R" d="M130.278 17.862V17.2468H131.461C131.697 17.2468 131.88 17.1885 132.009 17.072C132.143 16.9511 132.21 16.7849 132.21 16.5733C132.21 16.3833 132.145 16.2236 132.016 16.0941C131.887 15.9646 131.704 15.8998 131.468 15.8998H130.278V15.2522H131.501C131.795 15.2522 132.054 15.3105 132.277 15.4271C132.499 15.5393 132.671 15.6947 132.791 15.8933C132.916 16.0876 132.978 16.31 132.978 16.5604C132.978 16.8237 132.916 17.0525 132.791 17.2468C132.671 17.4411 132.499 17.5922 132.277 17.7001C132.054 17.8081 131.795 17.862 131.501 17.862H130.278ZM129.75 19.7854V15.2522H130.519V19.7854H129.75ZM132.317 19.7854L130.679 17.8167L131.394 17.5641L133.286 19.7854H132.317Z" fill="#403E44"/>
</g>
</g>
</svg>
