<svg width="79" height="24" viewBox="0 0 79 24" fill="none" xmlns="http://www.w3.org/2000/svg">
<g id="Group 289">
<g id="olab">
<path id="Vector" d="M71.3084 24C68.3582 24 66.5019 22.7036 65.5738 20.5097V23.6676H62.2258V0H65.7395V9.44044C66.7008 7.31302 68.5571 6.18282 71.3084 6.18282C75.916 6.18282 78.7999 9.47368 78.7999 15.0914C78.7999 20.7091 75.916 24 71.3084 24ZM70.5129 21.3075C73.3305 21.3075 75.2862 19.4127 75.2862 15.0914C75.2862 10.8033 73.3305 8.87534 70.5129 8.87534C67.6621 8.87534 65.7395 10.8033 65.7395 15.0914C65.7395 19.4127 67.6621 21.3075 70.5129 21.3075Z" fill="#403E44"/>
<path id="Vector_2" d="M51.7829 24C47.8051 24 45.6505 22.0056 45.6505 18.8144C45.6505 16.2549 47.2085 14.2272 51.4514 13.8615L54.7663 13.5956C56.7883 13.3962 57.385 12.9308 57.385 11.8338C57.385 9.87261 56.2579 8.70918 53.7718 8.70918C51.4514 8.70918 50.1918 9.70641 50.0261 11.8338H46.5787C46.5787 8.37677 48.7001 6.18286 53.7387 6.18286C58.744 6.18286 60.8987 8.37677 60.8987 11.8338V19.2798C60.8987 21.6067 61.0975 23.1025 61.429 23.6676H58.28C57.7496 23.0028 57.5507 22.3047 57.5507 20.7092C56.6225 22.9031 54.7331 24 51.7829 24ZM52.7442 21.5734C55.7607 21.5734 57.385 19.2133 57.385 16.3878V14.9252C57.0203 15.3906 56.0922 15.6565 54.7663 15.7563L52.5785 15.9557C50.1255 16.1552 49.1642 17.1856 49.1642 18.5817C49.1642 20.3435 50.225 21.5734 52.7442 21.5734Z" fill="#403E44"/>
<path id="Vector_3" d="M44.9857 23.6676H41.472V0H44.9857V23.6676Z" fill="#403E44"/>
<path id="Vector_4" d="M32.346 24C26.9097 24 23.8932 20.543 23.8932 15.0914C23.8932 9.63992 26.9097 6.18286 32.346 6.18286C37.7823 6.18286 40.7987 9.63992 40.7987 15.0914C40.7987 20.543 37.7823 24 32.346 24ZM32.346 21.3075C35.495 21.3075 37.285 19.2466 37.285 15.0914C37.285 10.9696 35.495 8.87538 32.346 8.87538C29.1969 8.87538 27.4069 10.9696 27.4069 15.0914C27.4069 19.2466 29.1969 21.3075 32.346 21.3075Z" fill="#403E44"/>
</g>
<g id="Group 282">
<g id="Group 288">
<path id="Vector (Stroke)" fill-rule="evenodd" clip-rule="evenodd" d="M18.0647 23.5457H9.77767V18.4989C7.16182 20.099 4.08829 21.0208 0.800049 21.0208V12.7106C5.75825 12.7106 9.77767 8.67988 9.77767 3.70779V1.38501H18.0647V23.5457Z" fill="#403E44"/>
<path id="Vector (Stroke)_2" fill-rule="evenodd" clip-rule="evenodd" d="M0.800046 2.76989L5.63402 2.76988L5.63403 8.31005L0.800056 8.31006L0.800046 2.76989Z" fill="#403E44"/>
</g>
</g>
</g>
</svg>
