<svg width="99" height="24" viewBox="0 0 99 24" fill="none" xmlns="http://www.w3.org/2000/svg">
<g id="Group 286">
<g id="verse">
<path id="Vector" d="M90.678 21.152C85.4665 21.152 82.5747 17.824 82.5747 12.576C82.5747 7.488 85.3076 4 90.4874 4C95.6671 4 98.4 7.552 98.4 12.288C98.4 12.608 98.3682 12.896 98.3365 13.216H85.9431C86.0385 17.12 87.8816 18.816 90.678 18.816C92.9978 18.816 94.4596 17.6 94.968 15.712H98.0505C97.3196 19.072 94.9362 21.152 90.678 21.152ZM90.4874 6.336C87.9451 6.336 86.2927 7.872 85.9431 10.976H95.0316C94.682 7.872 93.0296 6.336 90.4874 6.336Z" fill="#403E44"/>
<path id="Vector_2" d="M75.4624 21.152C70.3145 21.152 68.3442 18.88 68.3442 15.712H71.5856C71.7445 17.6 72.5707 18.88 75.4942 18.88C78.3542 18.88 79.2122 17.632 79.2122 16.224C79.2122 14.912 78.2589 14.24 76.7018 14.016L73.6829 13.568C70.2509 13.088 68.7891 11.872 68.7891 9.12C68.7891 6.272 70.5687 4 75.4624 4C80.3562 4 82.1358 6.272 82.1358 9.184H78.8944C78.7355 7.648 78.2271 6.272 75.4307 6.272C73.0473 6.272 72.1576 7.264 72.1576 8.864C72.1576 10.208 72.9202 10.688 74.1913 10.88L77.2102 11.328C80.5469 11.808 82.5807 13.024 82.5807 16.032C82.5807 18.88 80.6104 21.152 75.4624 21.152Z" fill="#403E44"/>
<path id="Vector_3" d="M62.6795 20.8319H59.311V4.31993H62.5206V8.12793C63.3786 5.21593 64.8404 4.12793 67.2237 4.12793C67.6686 4.12793 68.3041 4.22393 68.7172 4.31993V7.29593L67.0966 7.23193C64.4272 7.23193 62.6795 9.31193 62.6795 12.9919V20.8319Z" fill="#403E44"/>
<path id="Vector_4" d="M50.9656 21.152C45.7541 21.152 42.8623 17.824 42.8623 12.576C42.8623 7.488 45.5952 4 50.775 4C55.9547 4 58.6876 7.552 58.6876 12.288C58.6876 12.608 58.6558 12.896 58.6241 13.216H46.2307C46.3261 17.12 48.1692 18.816 50.9656 18.816C53.2854 18.816 54.7472 17.6 55.2556 15.712H58.3381C57.6072 19.072 55.2238 21.152 50.9656 21.152ZM50.775 6.336C48.2327 6.336 46.5803 7.872 46.2307 10.976H55.3192C54.9696 7.872 53.3172 6.336 50.775 6.336Z" fill="#403E44"/>
<path id="Vector_5" d="M38.2303 20.8321H34.1628L27.9343 4.32007H31.4299L36.1965 17.8241L40.9314 4.32007H44.4587L38.2303 20.8321Z" fill="#403E44"/>
</g>
<g id="Group 285">
<path id="Vector 2 (Stroke)" fill-rule="evenodd" clip-rule="evenodd" d="M6.84046 2.2217L19.7171 16.583L13.793 21.7783L0.916406 7.41703L6.84046 2.2217Z" fill="#403E44"/>
<path id="Vector 3 (Stroke)" fill-rule="evenodd" clip-rule="evenodd" d="M22.3605 9.18311L14.1346 14.5663L17.6223 2.10141L22.3605 9.18311Z" fill="#403E44"/>
</g>
</g>
</svg>
