<svg width="82" height="24" viewBox="0 0 82 24" fill="none" xmlns="http://www.w3.org/2000/svg">
<g id="Group 290">
<g id="Group 283">
<path id="Vector 5 (Stroke)" fill-rule="evenodd" clip-rule="evenodd" d="M17.8173 10.1641L11.6644 10.1641L11.6644 2.3336L17.8173 2.3336L17.8173 10.1641Z" fill="#403E44"/>
<path id="Vector 6 (Stroke)" fill-rule="evenodd" clip-rule="evenodd" d="M8.83987 21.9097L2.68695 21.9097L2.68695 14.0792L8.83988 14.0792L8.83987 21.9097Z" fill="#403E44"/>
<path id="Vector 4 (Stroke)" fill-rule="evenodd" clip-rule="evenodd" d="M6.84813 2.2217L19.3624 16.583L13.6051 21.7783L1.09079 7.41703L6.84813 2.2217Z" fill="#403E44"/>
</g>
<g id="zeer">
<path id="Vector" d="M75.5467 21.1007H72.058V3.92361H75.3822V7.885C76.2708 4.8557 77.7848 3.72388 80.2533 3.72388C80.7141 3.72388 81.3723 3.82374 81.8002 3.92361V7.01948L80.1216 6.9529C77.3569 6.9529 75.5467 9.11669 75.5467 12.9449V21.1007Z" fill="#403E44"/>
<path id="Vector_2" d="M63.4144 21.4335C58.0167 21.4335 55.0216 17.9714 55.0216 12.512C55.0216 7.21907 57.8521 3.59058 63.2169 3.59058C68.5817 3.59058 71.4122 7.28565 71.4122 12.2124C71.4122 12.5453 71.3793 12.8449 71.3464 13.1778H58.5104C58.6091 17.239 60.518 19.0034 63.4144 19.0034C65.817 19.0034 67.331 17.7384 67.8576 15.7743H71.0501C70.2932 19.2697 67.8247 21.4335 63.4144 21.4335ZM63.2169 6.02067C60.5839 6.02067 58.8724 7.61854 58.5104 10.8476H67.9234C67.5614 7.61854 65.8499 6.02067 63.2169 6.02067Z" fill="#403E44"/>
<path id="Vector_3" d="M47.0364 21.4335C41.6387 21.4335 38.6437 17.9714 38.6437 12.512C38.6437 7.21907 41.4742 3.59058 46.839 3.59058C52.2038 3.59058 55.0343 7.28565 55.0343 12.2124C55.0343 12.5453 55.0013 12.8449 54.9684 13.1778H42.1324C42.2312 17.239 44.1401 19.0034 47.0364 19.0034C49.4391 19.0034 50.9531 17.7384 51.4797 15.7743H54.6722C53.9152 19.2697 51.4468 21.4335 47.0364 21.4335ZM46.839 6.02067C44.2059 6.02067 42.4945 7.61854 42.1324 10.8476H51.5455C51.1835 7.61854 49.472 6.02067 46.839 6.02067Z" fill="#403E44"/>
<path id="Vector_4" d="M38.8096 21.1007H25.3153V18.7372L34.4322 6.45355H25.6444V3.92358H38.4804V6.2871L29.3636 18.5707H38.8096V21.1007Z" fill="#403E44"/>
</g>
</g>
</svg>
